<svg xmlns="http://www.w3.org/2000/svg" viewBox="0 0 1600 561" width="1600" height="561">
  <defs>
    <linearGradient id="sea" x1="0" y1="0" x2="0" y2="1">
      <stop offset="0" stop-color="#0b1a2e"></stop><stop offset="1" stop-color="#0a1526"></stop>
    </linearGradient>
    <linearGradient id="land" x1="0" y1="0" x2="0" y2="1">
      <stop offset="0" stop-color="#12304a"></stop><stop offset="1" stop-color="#0e2338"></stop>
    </linearGradient>
    <filter id="glow" x="-20%" y="-20%" width="140%" height="140%">
      <feGaussianBlur stdDeviation="4" result="b"></feGaussianBlur>
      <feMerge><feMergeNode in="b"></feMergeNode><feMergeNode in="SourceGraphic"></feMergeNode></feMerge>
    </filter>
  </defs>
  <g fill="url(#land)" stroke="#22d3ee" stroke-width="2.5" stroke-linejoin="round" filter="url(#glow)">
    <path d="M567.9,474.9 L572.1,473.8 L579.1,471.2 L580.7,470.7 L584.0,470.3 L586.7,470.2 L588.4,470.5 L589.7,470.6 L591.8,470.3 L593.2,470.1 L595.5,469.8 L597.2,469.5 L598.1,469.6 L600.5,469.3 L602.0,469.4 L602.8,469.4 L603.3,469.3 L604.6,468.6 L605.8,468.1 L607.2,467.7 L608.0,467.2 L609.3,466.8 L610.3,466.6 L611.0,466.2 L611.7,465.7 L612.4,465.4 L613.2,465.3 L613.6,465.4 L614.2,465.9 L614.8,465.7 L617.5,465.4 L619.1,464.9 L621.3,464.0 L622.9,463.1 L624.7,462.1 L626.7,461.3 L628.5,460.8 L631.0,460.5 L632.6,460.5 L634.2,460.9 L635.2,461.3 L635.8,462.0 L636.0,463.1 L637.7,464.0 L638.4,464.5 L638.6,464.9 L638.6,466.1 L639.2,466.4 L641.2,466.2 L643.2,465.8 L645.4,465.3 L647.0,465.0 L648.2,464.9 L651.6,463.9 L652.4,464.1 L652.9,464.1 L655.3,462.9 L657.6,461.8 L660.7,461.0 L663.5,460.7 L666.6,460.1 L669.8,459.1 L672.8,458.1 L674.6,457.8 L676.8,457.7 L678.8,457.6 L680.0,457.7 L681.0,457.8 L681.7,458.2 L682.2,459.4 L682.5,460.1 L683.0,460.3 L684.2,460.1 L686.1,460.5 L688.9,460.6 L691.1,461.2 L692.0,461.6 L693.5,461.2 L695.4,461.1 L698.4,461.4 L700.9,462.2 L704.7,463.1 L707.8,464.6 L708.6,465.1 L709.0,465.5 L709.8,465.8 L710.0,465.8 L710.1,465.8 L710.8,465.9 L711.9,466.3 L715.0,467.4 L716.5,468.1 L719.1,468.9 L724.0,471.8 L725.2,472.8 L725.9,473.6 L726.8,474.7 L726.9,475.2 L727.6,475.9 L728.2,476.2 L728.5,476.7 L729.1,477.4 L729.4,478.0 L729.1,478.5 L728.7,478.9 L727.0,479.9 L725.7,480.6 L724.5,481.5 L724.0,482.4 L723.8,483.3 L723.8,484.3 L723.9,485.0 L724.5,485.8 L724.7,486.4 L725.6,487.3 L726.4,487.9 L728.1,488.8 L729.0,489.2 L730.0,489.8 L730.9,490.7 L731.8,491.9 L732.6,492.4 L733.4,492.4 L734.1,492.2 L734.7,491.9 L734.8,491.5 L735.1,491.4 L735.7,491.9 L736.0,491.7 L735.8,491.0 L736.1,490.6 L736.8,490.2 L737.6,489.1 L738.4,487.5 L738.4,486.7 L738.6,485.6 L738.2,484.1 L737.7,483.2 L737.3,482.5 L735.1,480.1 L733.0,479.1 L731.2,477.2 L730.2,476.4 L728.5,475.7 L727.9,475.4 L727.5,474.9 L727.2,474.0 L726.5,472.8 L726.4,471.8 L726.5,470.8 L726.8,469.6 L727.5,467.9 L728.4,466.5 L730.4,464.3 L732.4,462.5 L733.1,462.0 L734.1,461.4 L735.1,460.8 L737.3,459.6 L739.6,458.4 L742.3,457.4 L744.4,457.0 L746.4,456.6 L749.0,456.3 L752.5,455.8 L754.6,455.8 L757.1,455.8 L759.2,456.0 L762.3,456.5 L763.9,456.8 L767.0,457.6 L769.8,458.6 L771.8,459.6 L774.2,460.9 L778.3,463.2 L781.3,465.3 L782.4,466.3 L782.7,466.5 L783.5,467.2 L784.9,468.8 L786.0,470.6 L785.2,472.3 L784.4,473.6 L783.6,474.8 L782.2,475.8 L781.1,476.8 L780.9,477.8 L781.5,479.5 L780.9,482.5 L779.6,484.2 L779.0,485.6 L778.4,486.0 L777.1,486.3 L776.1,487.0 L774.9,487.9 L773.6,489.5 L773.6,490.7 L774.1,491.9 L777.0,493.0 L779.1,493.0 L780.2,494.0 L781.5,494.2 L782.5,494.2 L783.9,494.6 L785.6,494.2 L786.3,494.5 L787.0,494.6 L787.7,494.8 L788.8,494.5 L789.4,494.7 L790.1,495.0 L790.2,496.2 L790.7,496.7 L790.9,496.3 L792.0,495.6 L793.2,495.8 L794.4,496.3 L794.7,497.2 L795.5,497.8 L796.5,497.6 L797.7,497.1 L798.6,496.3 L799.0,496.5 L799.4,496.6 L799.7,497.1 L800.4,497.0 L800.4,496.3 L799.9,495.8 L799.2,495.5 L798.2,494.4 L797.7,493.5 L797.6,491.2 L797.2,489.5 L796.5,488.2 L796.9,487.0 L796.9,485.7 L796.9,484.3 L796.0,483.7 L795.0,483.3 L795.0,481.6 L796.5,479.9 L798.6,479.2 L801.0,478.8 L803.4,478.8 L805.2,479.5 L806.7,480.0 L807.0,480.6 L806.9,481.7 L807.2,482.4 L807.9,483.1 L808.8,484.4 L808.4,485.4 L807.6,486.8 L807.4,487.8 L807.4,488.4 L808.0,489.1 L807.2,490.2 L806.9,491.1 L807.1,492.1 L807.4,492.2 L807.4,493.3 L808.8,493.6 L810.9,493.1 L813.7,493.0 L814.0,491.7 L814.3,490.2 L814.3,488.7 L814.0,488.1 L813.8,487.4 L814.4,486.9 L815.3,486.7 L816.0,487.2 L817.0,487.1 L817.3,486.5 L817.9,486.1 L818.8,486.0 L819.0,486.5 L819.5,486.6 L819.5,485.8 L819.9,486.1 L820.0,486.8 L820.6,486.2 L820.8,486.8 L821.3,486.8 L821.5,487.4 L822.3,487.3 L822.6,487.0 L823.2,486.6 L823.6,486.0 L823.7,485.1 L823.5,483.7 L823.8,483.3 L824.1,482.8 L823.5,481.8 L823.0,481.0 L823.1,480.3 L822.7,479.5 L823.3,479.0 L823.7,478.4 L823.2,477.5 L826.1,475.2 L827.8,474.1 L829.6,473.2 L830.2,474.1 L831.3,474.5 L832.6,473.8 L833.5,472.7 L833.3,471.5 L833.4,470.8 L833.0,469.1 L832.3,467.6 L831.6,465.7 L831.9,464.9 L833.2,464.0 L834.4,463.7 L835.7,464.1 L837.1,463.5 L839.5,459.5 L840.1,457.5 L841.7,455.2 L842.4,454.1 L842.0,452.4 L841.7,451.0 L840.9,450.7 L839.9,450.9 L839.2,450.9 L835.0,449.3 L830.4,447.8 L826.5,447.0 L823.6,446.2 L818.8,445.0 L814.3,444.3 L813.1,444.1 L809.0,444.0 L807.4,443.8 L805.7,443.9 L803.9,444.5 L802.5,445.0 L800.9,446.0 L799.8,446.1 L801.5,445.1 L801.4,443.6 L800.1,440.7 L798.5,439.5 L797.5,438.7 L797.7,437.7 L797.7,436.7 L797.2,435.9 L797.6,434.5 L797.2,433.5 L797.4,432.8 L797.8,431.8 L799.0,431.0 L800.4,429.9 L802.3,428.9 L803.7,428.4 L805.0,427.2 L806.3,426.7 L807.8,426.1 L811.8,425.9 L813.9,425.8 L814.8,425.7 L816.0,425.5 L817.1,425.1 L818.3,424.9 L821.0,425.0 L822.9,425.7 L825.4,425.3 L827.0,424.9 L828.4,425.0 L830.2,426.0 L831.3,427.0 L832.5,427.8 L833.1,428.4 L834.5,429.1 L835.6,428.9 L836.3,428.6 L837.6,428.2 L838.6,428.2 L840.6,427.6 L841.6,427.3 L842.8,427.1 L843.2,427.0 L843.6,427.3 L844.2,428.7 L844.4,429.4 L845.1,431.3 L845.9,433.2 L845.7,434.2 L846.1,435.9 L845.4,439.0 L845.0,440.9 L844.8,441.9 L844.4,441.2 L843.9,440.7 L843.3,440.4 L842.5,440.4 L841.9,440.7 L841.2,440.7 L840.7,440.3 L839.5,440.5 L838.5,440.5 L838.2,440.7 L838.2,441.0 L839.1,441.3 L840.1,442.1 L842.0,444.2 L843.3,446.0 L845.3,450.9 L846.3,453.2 L846.1,455.1 L847.6,459.3 L847.5,460.2 L847.2,460.7 L846.5,461.5 L846.3,462.9 L844.6,466.1 L843.2,469.1 L843.5,469.6 L843.9,469.6 L844.4,470.0 L845.2,470.0 L845.5,470.2 L847.8,471.2 L849.4,472.3 L851.0,474.1 L852.6,475.4 L853.6,475.8 L854.8,475.7 L856.0,475.4 L858.6,474.6 L862.0,474.4 L862.2,474.9 L863.9,474.8 L864.4,475.0 L864.9,474.5 L865.3,474.5 L866.0,474.6 L866.6,474.3 L868.2,474.3 L868.7,473.8 L869.5,473.9 L870.3,473.7 L871.5,473.5 L872.1,471.5 L872.6,471.0 L873.1,471.0 L873.3,471.6 L873.5,472.2 L873.9,472.3 L874.9,472.1 L875.8,471.8 L876.6,472.1 L877.0,472.6 L877.5,472.7 L878.9,472.2 L879.9,471.4 L879.6,470.4 L879.3,470.3 L879.0,470.1 L879.1,469.8 L879.6,469.6 L879.3,468.3 L879.9,467.0 L880.6,466.2 L881.3,465.9 L882.0,466.1 L882.5,466.9 L883.5,467.5 L884.0,468.9 L884.8,469.5 L885.1,469.4 L885.3,469.2 L885.6,469.3 L885.8,469.7 L885.9,470.0 L886.9,470.2 L887.2,470.1 L887.3,469.6 L887.6,469.3 L888.0,469.3 L888.0,469.9 L888.4,470.2 L889.1,470.1 L888.8,469.6 L888.9,469.1 L888.7,468.8 L888.8,468.5 L889.6,468.1 L890.4,468.1 L890.9,468.9 L891.3,469.2 L892.0,469.1 L893.0,469.1 L893.7,468.5 L894.4,468.2 L895.3,467.4 L895.5,466.5 L894.7,465.9 L894.7,465.5 L894.8,465.1 L895.3,465.1 L895.7,464.4 L896.3,464.4 L897.0,464.8 L897.3,465.0 L897.4,465.3 L897.7,465.5 L898.4,465.5 L898.7,465.4 L898.9,465.5 L898.9,465.7 L898.7,466.1 L898.8,466.7 L899.4,467.5 L899.9,467.7 L900.6,467.7 L901.2,467.1 L901.5,466.0 L901.0,465.1 L900.9,464.1 L901.3,463.7 L902.2,463.6 L902.9,463.8 L903.8,463.3 L904.2,463.4 L904.5,463.8 L904.9,463.8 L906.1,463.2 L906.3,462.5 L907.2,462.0 L908.4,461.9 L909.7,461.6 L910.0,460.9 L910.5,460.4 L910.4,459.6 L911.5,460.1 L912.6,460.2 L913.4,459.6 L913.5,459.2 L913.1,458.8 L913.2,458.5 L913.2,457.9 L912.8,457.6 L913.3,457.5 L913.9,457.4 L914.3,457.2 L913.8,456.8 L911.1,457.2 L910.6,456.9 L910.0,455.7 L909.7,454.5 L909.8,453.6 L910.2,452.5 L910.7,451.8 L911.9,451.6 L915.5,450.3 L916.1,449.1 L916.1,448.6 L915.8,448.2 L915.8,447.3 L915.1,446.6 L915.2,446.3 L915.7,446.1 L916.6,446.1 L917.2,446.3 L917.8,446.3 L918.6,445.6 L917.8,445.4 L917.3,444.8 L917.5,444.4 L917.1,444.1 L916.5,444.1 L915.7,443.6 L915.6,443.2 L914.9,442.6 L913.2,441.8 L911.6,441.8 L910.3,441.4 L909.5,440.3 L908.2,439.2 L907.3,438.8 L906.0,438.7 L904.1,438.3 L903.7,437.9 L902.8,435.3 L901.9,434.5 L899.9,433.6 L899.4,432.3 L899.9,431.5 L899.7,430.5 L898.7,429.7 L897.4,428.1 L896.2,427.7 L894.9,427.9 L893.5,428.9 L892.1,429.1 L889.0,428.6 L884.2,428.4 L881.7,428.1 L882.4,427.2 L882.7,426.0 L882.6,424.3 L882.0,423.5 L879.9,422.7 L877.0,421.7 L875.3,421.3 L870.7,421.2 L868.7,421.9 L867.4,422.0 L866.2,421.3 L865.8,420.9 L865.5,420.9 L865.2,420.4 L864.7,420.4 L864.4,420.1 L863.9,420.1 L863.3,420.0 L863.2,419.4 L862.7,419.1 L861.7,419.2 L860.6,418.6 L860.4,417.8 L860.4,416.9 L861.0,416.0 L861.7,415.6 L862.1,415.7 L862.5,416.0 L862.8,416.0 L863.9,415.5 L864.7,415.8 L865.9,415.9 L866.9,415.9 L867.2,415.0 L866.8,414.0 L868.8,413.4 L869.2,412.5 L869.3,411.8 L869.9,411.8 L870.8,411.6 L871.8,410.1 L871.7,409.2 L872.0,409.1 L873.2,409.9 L874.2,409.9 L874.7,409.2 L874.9,406.8 L875.4,406.5 L878.1,408.2 L879.0,408.0 L879.2,407.2 L879.6,405.8 L879.7,403.2 L880.2,403.0 L881.1,404.1 L882.5,404.4 L883.0,405.3 L884.4,405.4 L885.5,403.6 L886.4,402.6 L886.5,401.0 L887.0,400.2 L887.4,400.2 L888.2,402.1 L889.9,402.5 L890.4,402.4 L890.9,401.8 L890.5,400.6 L891.1,399.9 L891.7,399.7 L892.0,398.9 L891.6,398.3 L891.5,397.6 L892.2,397.0 L892.6,396.3 L894.0,396.2 L894.7,396.7 L895.6,396.6 L896.0,397.5 L895.8,397.7 L894.6,398.0 L893.4,398.4 L892.6,399.6 L892.3,400.3 L892.3,401.2 L892.9,401.7 L893.7,401.7 L894.6,402.1 L895.7,402.2 L897.6,401.5 L898.9,401.2 L900.3,400.5 L900.4,399.4 L900.3,398.4 L899.5,397.4 L898.9,396.7 L899.0,396.3 L900.5,395.8 L900.5,396.4 L901.2,397.0 L903.4,398.8 L903.7,399.6 L903.7,401.0 L903.4,401.5 L902.6,401.6 L902.0,401.7 L901.7,402.2 L902.4,402.8 L903.3,403.2 L904.3,404.2 L905.1,404.4 L905.6,404.9 L906.0,405.7 L907.0,406.0 L907.0,407.0 L907.5,407.9 L906.7,408.2 L906.5,408.8 L906.8,409.4 L907.5,409.7 L908.4,409.5 L908.8,409.1 L908.8,408.4 L908.3,407.8 L908.4,407.3 L909.0,406.5 L909.2,405.3 L908.9,404.1 L909.3,402.8 L909.0,401.9 L908.3,402.0 L907.2,401.3 L905.9,401.3 L906.2,399.6 L905.2,399.0 L905.8,398.4 L906.1,397.6 L907.9,397.9 L908.8,398.5 L910.9,404.6 L909.7,409.2 L910.0,414.2 L909.0,414.8 L908.0,413.7 L906.8,413.1 L905.6,412.3 L905.1,411.4 L904.5,411.6 L904.4,412.7 L906.0,413.6 L907.1,414.7 L911.5,421.6 L913.2,423.0 L914.1,425.1 L915.5,429.9 L916.0,430.2 L917.5,430.3 L918.9,430.7 L919.5,431.4 L919.7,433.7 L921.1,436.3 L922.0,436.3 L923.7,437.1 L924.9,437.1 L926.4,437.4 L927.1,437.2 L927.4,435.9 L927.5,435.1 L928.5,434.7 L929.1,435.1 L929.5,436.1 L930.7,436.5 L931.1,436.8 L930.8,437.3 L931.0,438.1 L931.3,438.1 L932.9,437.4 L932.6,436.9 L932.9,436.6 L932.5,436.1 L933.3,435.4 L934.8,435.1 L936.1,434.9 L936.7,435.0 L936.7,435.4 L937.2,435.7 L938.1,435.6 L938.3,434.2 L939.9,433.4 L940.2,432.7 L940.0,432.0 L937.7,429.1 L937.0,428.3 L936.1,428.1 L934.5,428.0 L933.6,426.8 L933.0,425.4 L933.0,424.6 L933.3,423.8 L934.1,422.8 L934.4,422.7 L934.8,422.8 L935.2,423.0 L935.6,422.8 L935.6,421.6 L933.4,419.7 L934.6,418.1 L936.2,416.9 L938.8,415.6 L941.0,414.1 L942.4,412.4 L942.9,412.2 L946.0,414.0 L946.6,414.1 L947.0,413.8 L947.6,411.5 L950.7,411.1 L953.3,411.2 L955.5,411.4 L957.5,412.1 L958.9,412.7 L960.2,413.9 L960.5,414.8 L960.4,415.8 L959.5,416.2 L958.9,416.7 L958.7,417.3 L958.8,418.4 L959.1,418.9 L959.0,419.2 L959.4,419.2 L959.9,419.4 L960.7,419.2 L961.6,418.5 L962.0,418.4 L962.6,418.8 L963.0,418.6 L963.2,418.7 L963.3,419.1 L963.7,419.3 L964.2,419.2 L966.1,418.7 L967.8,418.2 L969.8,417.5 L971.3,416.9 L972.5,417.1 L973.2,417.0 L974.8,415.3 L976.1,415.2 L977.1,414.6 L978.1,413.4 L978.2,412.3 L978.0,411.6 L977.1,410.8 L975.8,408.1 L972.9,406.5 L971.7,405.6 L969.4,401.6 L968.7,401.0 L965.8,399.6 L964.8,398.4 L964.8,396.4 L965.5,394.6 L967.2,393.0 L969.0,391.4 L970.7,390.2 L972.0,389.7 L973.8,389.4 L975.9,389.7 L983.7,390.4 L985.2,391.1 L986.1,392.7 L987.7,397.2 L987.5,401.8 L986.2,402.9 L985.8,404.5 L984.9,405.9 L984.0,406.0 L983.5,406.6 L983.6,407.2 L984.4,408.9 L985.0,409.6 L986.6,410.2 L987.7,409.8 L988.4,409.9 L988.9,410.3 L989.7,410.3 L990.0,409.4 L990.3,408.6 L990.9,408.3 L991.4,408.3 L991.7,408.8 L992.2,409.0 L992.9,408.9 L993.4,409.3 L993.4,409.7 L994.0,410.0 L994.7,410.0 L996.2,409.7 L997.3,409.1 L997.6,408.4 L997.4,407.9 L996.4,407.0 L996.4,406.0 L996.8,405.1 L998.3,403.5 L1001.2,401.7 L1001.7,400.5 L1003.0,400.0 L1004.5,399.9 L1006.2,400.1 L1007.5,400.6 L1008.5,401.3 L1009.2,402.1 L1008.5,403.6 L1008.3,404.9 L1008.6,405.9 L1010.0,408.0 L1011.5,409.1 L1012.4,409.3 L1013.5,409.0 L1015.5,407.7 L1016.6,406.2 L1016.8,402.3 L1017.8,400.9 L1019.7,400.1 L1022.2,400.0 L1023.4,400.2 L1023.5,401.1 L1024.2,401.5 L1026.3,400.9 L1027.3,402.6 L1027.5,403.8 L1028.5,404.1 L1029.3,404.9 L1030.2,405.2 L1031.1,405.3 L1032.5,404.9 L1033.6,405.2 L1034.6,406.0 L1035.8,408.6 L1035.7,409.8 L1035.8,410.4 L1036.1,410.9 L1037.5,412.2 L1038.5,412.9 L1040.0,413.3 L1040.7,412.3 L1040.5,411.1 L1039.6,409.4 L1039.4,407.8 L1039.6,406.2 L1040.4,404.9 L1041.4,404.1 L1042.1,404.1 L1042.4,403.6 L1044.2,402.4 L1044.8,399.2 L1044.3,397.3 L1044.8,396.7 L1046.9,395.6 L1051.0,394.3 L1056.1,393.7 L1062.2,393.4 L1064.1,393.7 L1066.5,394.2 L1069.0,394.9 L1072.8,396.5 L1075.7,397.2 L1078.8,396.1 L1083.8,394.0 L1085.8,393.9 L1087.3,394.2 L1088.4,394.8 L1089.2,395.6 L1089.8,397.3 L1090.6,397.8 L1093.6,397.9 L1096.5,398.6 L1098.1,399.2 L1099.9,400.5 L1102.4,403.2 L1101.6,404.5 L1101.4,407.7 L1100.8,409.8 L1101.1,410.2 L1102.8,410.2 L1106.1,413.2 L1107.6,414.8 L1109.6,415.0 L1112.7,416.0 L1113.5,415.6 L1112.7,414.7 L1113.8,412.8 L1115.1,412.4 L1115.2,411.2 L1111.8,409.9 L1110.0,408.3 L1107.3,405.8 L1104.9,402.8 L1104.2,400.5 L1102.8,398.6 L1102.9,396.5 L1105.8,393.3 L1107.5,392.1 L1107.3,391.4 L1104.6,389.5 L1103.1,387.9 L1103.0,386.9 L1103.4,385.6 L1105.5,384.8 L1107.5,384.0 L1108.1,383.2 L1107.8,382.8 L1109.2,380.8 L1107.4,379.4 L1106.5,378.5 L1106.9,377.0 L1108.7,375.1 L1111.3,373.7 L1113.4,373.2 L1114.8,373.3 L1116.7,373.5 L1118.5,374.7 L1118.3,376.8 L1118.7,378.0 L1119.7,378.9 L1121.5,379.2 L1122.1,378.9 L1123.1,376.3 L1122.9,375.0 L1119.7,372.8 L1119.0,371.9 L1120.1,368.7 L1119.7,367.9 L1113.6,364.5 L1113.9,361.9 L1114.3,361.4 L1112.7,358.7 L1114.2,358.3 L1113.1,355.5 L1112.7,350.7 L1116.1,351.7 L1117.9,349.2 L1121.4,348.2 L1127.8,345.6 L1131.7,346.0 L1136.6,345.7 L1141.5,346.4 L1142.4,347.1 L1143.2,348.1 L1144.7,348.9 L1144.6,352.7 L1145.1,354.2 L1148.7,355.6 L1149.7,358.7 L1150.0,360.0 L1152.7,362.6 L1154.0,362.5 L1154.7,361.6 L1155.0,360.3 L1154.8,356.9 L1153.6,355.2 L1151.9,354.2 L1150.1,353.7 L1148.3,352.4 L1147.7,351.3 L1147.6,348.7 L1148.9,347.4 L1148.4,346.1 L1149.6,344.2 L1152.5,342.5 L1155.1,341.9 L1157.4,341.6 L1158.6,340.0 L1158.1,338.1 L1158.5,337.6 L1159.1,338.2 L1159.5,338.0 L1158.4,335.4 L1156.7,334.7 L1156.4,335.5 L1155.4,334.8 L1153.9,330.5 L1156.0,327.2 L1157.0,327.0 L1159.2,325.7 L1162.2,325.8 L1164.1,324.4 L1165.3,323.1 L1166.6,323.2 L1166.6,322.5 L1167.4,322.5 L1167.5,324.7 L1168.9,326.6 L1170.3,327.1 L1170.8,327.7 L1170.0,328.7 L1170.0,330.0 L1171.6,331.0 L1172.7,332.7 L1173.4,333.4 L1174.4,333.6 L1174.0,334.5 L1173.2,334.7 L1172.6,333.7 L1171.0,334.2 L1171.6,335.0 L1172.6,335.4 L1174.9,335.6 L1176.1,335.3 L1177.8,336.7 L1180.8,337.5 L1180.5,338.1 L1181.0,339.2 L1180.6,339.8 L1180.8,341.5 L1180.1,342.4 L1179.9,343.3 L1179.3,344.6 L1179.2,347.6 L1180.1,348.8 L1180.9,348.7 L1181.7,347.5 L1181.7,343.3 L1183.5,342.7 L1186.0,341.0 L1187.8,338.3 L1189.9,338.4 L1192.3,340.4 L1194.8,340.9 L1195.5,342.9 L1196.4,343.7 L1197.6,343.0 L1198.3,341.8 L1200.9,341.8 L1201.3,342.8 L1201.7,345.4 L1202.5,346.4 L1205.8,342.9 L1207.9,341.7 L1209.0,341.5 L1209.7,340.6 L1211.3,341.0 L1212.1,341.1 L1215.1,339.7 L1216.9,339.1 L1218.4,340.4 L1218.6,342.0 L1218.3,343.7 L1217.0,346.8 L1214.7,348.2 L1214.6,350.0 L1212.9,352.3 L1213.7,353.7 L1215.2,354.1 L1217.6,354.5 L1218.6,355.2 L1220.1,357.0 L1221.0,357.3 L1222.6,356.2 L1223.4,354.1 L1224.8,352.4 L1228.9,349.1 L1229.9,347.7 L1231.3,347.0 L1232.7,346.8 L1232.3,347.2 L1230.4,348.1 L1229.5,349.6 L1228.8,350.1 L1226.6,357.0 L1227.0,357.8 L1227.8,358.4 L1229.3,358.9 L1230.4,358.4 L1230.6,357.4 L1231.2,356.2 L1232.1,355.2 L1234.2,354.3 L1236.4,353.6 L1237.8,352.5 L1239.1,351.2 L1240.8,350.4 L1242.8,348.6 L1243.4,348.3 L1244.7,348.6 L1245.1,349.2 L1244.9,350.0 L1244.4,350.3 L1242.6,350.6 L1242.3,351.4 L1241.7,351.0 L1240.2,351.6 L1238.4,355.7 L1235.4,359.7 L1239.6,362.2 L1241.0,362.2 L1244.8,362.6 L1245.9,362.8 L1246.7,361.4 L1247.9,360.6 L1248.9,360.2 L1251.0,360.6 L1252.7,361.7 L1253.6,361.6 L1254.5,362.8 L1255.9,361.9 L1256.7,361.0 L1256.4,359.4 L1256.4,358.3 L1257.2,355.2 L1258.5,356.0 L1258.6,357.7 L1258.2,359.5 L1258.3,360.8 L1257.9,361.6 L1256.3,363.2 L1255.3,365.0 L1255.3,366.0 L1256.0,366.9 L1256.5,368.4 L1255.8,370.2 L1254.2,371.1 L1251.4,371.2 L1249.9,371.6 L1247.3,374.0 L1244.9,374.7 L1243.1,375.3 L1242.3,375.9 L1242.3,378.0 L1243.2,379.6 L1243.4,381.2 L1244.0,381.2 L1245.0,380.8 L1245.9,381.1 L1246.2,381.8 L1245.7,382.6 L1244.6,382.6 L1243.6,381.8 L1242.8,382.1 L1239.1,381.6 L1237.4,381.2 L1234.8,379.4 L1233.5,379.2 L1232.3,379.5 L1231.1,380.0 L1228.7,383.2 L1223.9,384.8 L1221.8,385.3 L1217.1,385.6 L1215.3,385.2 L1214.1,385.2 L1212.3,386.0 L1210.9,387.3 L1209.8,390.5 L1209.2,391.7 L1207.7,391.7 L1206.4,390.0 L1204.7,387.5 L1204.0,386.9 L1203.4,387.0 L1202.9,387.3 L1203.3,388.4 L1204.5,389.9 L1205.4,392.4 L1204.9,393.0 L1206.0,393.7 L1206.6,393.8 L1207.3,394.7 L1207.4,396.0 L1208.0,396.5 L1208.5,395.8 L1208.2,394.9 L1208.9,394.8 L1210.0,395.2 L1211.2,396.1 L1212.6,396.0 L1212.9,395.6 L1213.7,395.2 L1214.1,394.7 L1214.1,393.5 L1215.1,393.3 L1216.6,393.5 L1218.8,393.9 L1221.7,395.0 L1222.5,396.1 L1222.7,396.9 L1223.2,396.8 L1223.6,397.2 L1224.8,397.5 L1225.3,398.0 L1225.3,398.8 L1225.8,399.6 L1226.5,399.8 L1227.7,399.6 L1228.2,399.9 L1229.2,400.2 L1229.9,400.7 L1230.5,400.1 L1231.1,399.7 L1231.6,400.1 L1232.2,399.5 L1232.0,398.9 L1231.5,398.3 L1231.8,397.5 L1231.1,395.9 L1230.8,394.7 L1232.1,393.4 L1233.3,393.4 L1234.5,394.0 L1235.2,394.7 L1235.9,395.0 L1236.5,395.5 L1237.1,395.2 L1238.0,395.9 L1238.4,395.5 L1238.4,395.1 L1239.4,395.2 L1241.0,395.2 L1241.9,395.6 L1242.4,397.4 L1243.7,396.9 L1244.6,397.7 L1245.3,398.2 L1246.0,398.5 L1246.3,398.0 L1247.8,398.5 L1248.7,398.4 L1248.9,397.7 L1247.8,397.6 L1248.3,396.8 L1248.4,396.2 L1247.8,395.3 L1247.5,394.4 L1247.7,393.5 L1248.2,392.7 L1249.1,392.3 L1249.6,391.8 L1249.6,390.2 L1248.9,389.8 L1248.3,389.2 L1247.9,387.4 L1248.2,385.7 L1248.4,384.4 L1249.6,382.2 L1250.9,380.8 L1253.7,380.1 L1255.3,380.2 L1259.2,381.6 L1260.9,383.3 L1260.8,384.8 L1259.9,386.5 L1259.4,387.6 L1259.5,388.3 L1260.3,389.2 L1260.8,388.8 L1261.5,388.2 L1261.9,388.6 L1262.3,388.2 L1262.9,388.0 L1263.4,388.3 L1263.5,387.9 L1263.8,387.6 L1264.1,387.9 L1264.8,387.9 L1264.6,387.3 L1265.1,387.1 L1265.5,387.1 L1266.2,387.8 L1267.1,387.4 L1266.2,386.7 L1266.2,386.0 L1266.8,385.5 L1267.6,385.1 L1268.2,384.5 L1268.9,384.8 L1269.1,384.5 L1269.3,384.0 L1270.0,383.9 L1270.2,383.4 L1269.8,383.0 L1268.9,382.8 L1268.2,382.5 L1267.5,382.0 L1267.5,381.2 L1267.4,380.7 L1267.9,380.4 L1268.5,380.1 L1268.9,379.5 L1268.8,379.1 L1269.3,378.5 L1270.2,378.5 L1269.8,378.2 L1269.8,377.7 L1269.4,377.4 L1268.8,376.7 L1268.0,375.9 L1267.3,375.4 L1266.5,374.4 L1265.6,372.3 L1263.1,370.3 L1261.5,369.0 L1261.5,366.8 L1261.9,365.7 L1262.5,364.8 L1263.4,364.0 L1264.7,363.2 L1266.4,362.7 L1267.8,362.6 L1269.1,362.8 L1270.7,365.2 L1272.5,367.6 L1274.3,370.4 L1275.6,372.0 L1279.1,372.8 L1280.7,374.4 L1281.2,374.8 L1281.1,375.7 L1281.5,376.2 L1282.2,376.4 L1282.3,375.9 L1281.9,375.5 L1282.2,375.0 L1282.3,374.5 L1282.6,374.1 L1283.4,374.7 L1283.5,373.8 L1282.9,373.2 L1280.9,371.9 L1279.7,371.1 L1276.2,367.7 L1275.3,365.2 L1275.2,363.2 L1275.8,362.0 L1276.4,360.8 L1278.1,360.1 L1279.5,359.5 L1280.7,359.5 L1281.7,359.6 L1281.7,358.7 L1282.3,357.7 L1282.9,356.4 L1283.5,356.3 L1283.4,354.7 L1282.7,354.1 L1282.1,353.2 L1279.7,351.5 L1279.4,349.9 L1278.4,349.0 L1279.4,346.2 L1280.9,344.8 L1282.8,343.4 L1285.2,342.5 L1288.1,342.1 L1290.8,342.1 L1294.3,343.0 L1295.3,344.1 L1295.6,345.8 L1296.0,346.9 L1296.3,347.7 L1297.3,349.0 L1298.1,349.9 L1298.3,351.2 L1297.9,352.6 L1297.7,353.7 L1297.3,355.2 L1298.1,356.2 L1299.7,357.5 L1301.2,357.8 L1302.7,357.7 L1305.3,358.3 L1305.8,359.2 L1306.5,360.4 L1307.4,360.2 L1308.0,359.3 L1306.7,358.6 L1307.1,357.7 L1307.8,357.6 L1308.0,356.7 L1308.5,355.6 L1308.0,354.9 L1307.4,354.7 L1306.9,353.9 L1306.8,353.2 L1308.8,350.6 L1313.4,346.8 L1316.9,344.8 L1322.4,342.5 L1330.2,339.6 L1337.6,337.9 L1341.7,337.9 L1344.2,339.0 L1345.8,340.1 L1347.8,343.1 L1350.6,344.1 L1351.3,345.7 L1351.8,347.2 L1351.7,349.2 L1352.7,350.1 L1354.3,351.2 L1354.4,350.6 L1355.3,350.3 L1356.1,349.6 L1355.9,347.4 L1355.9,345.9 L1356.2,345.3 L1357.3,344.4 L1359.1,342.9 L1360.4,342.8 L1362.3,343.0 L1364.9,343.2 L1366.3,343.6 L1367.9,343.5 L1369.9,342.5 L1372.2,340.8 L1373.0,340.5 L1373.8,340.5 L1374.8,340.9 L1375.4,340.9 L1375.8,341.6 L1376.0,341.0 L1376.3,341.0 L1376.9,341.3 L1377.1,340.5 L1377.6,339.9 L1378.4,339.2 L1379.8,338.6 L1380.9,338.3 L1381.9,338.0 L1383.1,337.9 L1383.8,338.1 L1384.9,338.7 L1385.6,339.3 L1386.4,339.7 L1386.9,340.1 L1387.3,339.0 L1388.0,338.9 L1388.3,338.2 L1388.9,337.7 L1389.1,336.8 L1389.2,336.3 L1390.0,335.8 L1391.6,335.1 L1392.3,334.4 L1393.1,333.2 L1393.4,332.2 L1391.9,330.7 L1391.6,329.0 L1391.3,328.7 L1390.9,328.5 L1389.7,328.3 L1389.1,328.9 L1389.5,329.4 L1388.9,330.0 L1388.4,330.4 L1387.2,330.4 L1386.1,330.5 L1385.1,330.7 L1384.2,330.6 L1383.1,329.8 L1382.4,329.2 L1381.8,328.1 L1381.1,327.1 L1380.5,326.3 L1379.4,324.6 L1379.3,324.1 L1380.1,324.1 L1381.5,323.7 L1381.2,323.2 L1380.4,323.3 L1379.5,323.2 L1379.3,322.4 L1379.3,320.9 L1379.6,319.0 L1380.1,318.2 L1380.8,317.7 L1381.9,317.6 L1382.5,317.4 L1383.5,316.9 L1383.4,316.2 L1383.8,315.0 L1384.8,312.9 L1386.8,310.5 L1388.1,309.4 L1390.6,307.5 L1392.3,306.4 L1393.2,305.9 L1394.1,305.4 L1394.9,305.1 L1396.0,304.8 L1396.8,304.6 L1397.6,304.6 L1398.7,304.6 L1399.9,304.8 L1400.6,305.1 L1401.0,305.3 L1401.3,305.3 L1401.5,305.1 L1401.6,304.7 L1402.1,304.3 L1403.1,303.5 L1404.1,302.8 L1405.4,302.8 L1406.2,303.4 L1406.5,304.0 L1406.8,304.6 L1407.7,305.2 L1408.6,305.4 L1410.8,306.2 L1411.3,306.8 L1411.6,307.5 L1412.5,308.3 L1413.5,308.5 L1414.5,308.2 L1415.3,307.7 L1416.3,307.6 L1416.6,307.3 L1417.3,306.5 L1417.3,304.7 L1417.9,304.6 L1420.2,304.3 L1421.1,304.4 L1423.0,304.8 L1424.7,305.6 L1426.5,306.5 L1428.0,307.9 L1429.8,309.4 L1431.1,311.2 L1432.4,313.9 L1432.2,315.0 L1431.5,316.1 L1431.4,316.8 L1431.8,318.2 L1432.9,320.4 L1433.7,321.6 L1434.8,322.4 L1435.7,323.3 L1436.1,323.9 L1435.9,324.3 L1436.2,324.5 L1436.4,325.2 L1437.0,325.2 L1438.5,325.8 L1439.8,326.9 L1440.4,327.7 L1440.4,328.2 L1439.9,328.9 L1439.4,329.7 L1438.7,330.0 L1438.6,330.9 L1438.0,332.3 L1438.4,333.1 L1438.3,333.9 L1438.8,334.6 L1439.6,335.3 L1440.8,335.9 L1441.5,335.9 L1442.5,335.3 L1443.3,335.2 L1444.4,334.5 L1444.9,333.8 L1445.7,333.1 L1445.7,332.5 L1446.3,332.4 L1447.2,331.6 L1447.7,331.1 L1448.8,329.6 L1450.9,327.5 L1452.4,326.2 L1452.5,325.4 L1454.6,324.8 L1455.7,324.8 L1456.9,325.4 L1457.7,325.1 L1457.6,324.4 L1458.9,323.8 L1460.1,323.8 L1464.3,324.8 L1465.7,324.2 L1467.9,323.3 L1470.4,322.7 L1471.1,323.1 L1471.4,322.4 L1472.2,321.7 L1472.9,321.7 L1474.5,321.5 L1476.1,321.5 L1477.1,321.6 L1478.3,321.6 L1478.5,321.1 L1479.4,320.8 L1480.1,320.8 L1480.8,320.4 L1481.3,320.4 L1481.8,319.9 L1482.4,319.1 L1483.3,318.0 L1484.6,317.3 L1485.7,317.0 L1486.9,316.9 L1487.8,316.6 L1488.5,315.6 L1489.3,315.0 L1490.9,314.3 L1493.5,314.0 L1494.7,314.0 L1496.0,314.2 L1497.4,314.6 L1498.9,315.5 L1500.5,316.6 L1501.5,316.8 L1503.8,316.8 L1504.7,316.8 L1506.0,316.9 L1507.8,317.6 L1509.2,317.7 L1510.7,317.8 L1511.6,318.2 L1512.4,318.3 L1514.3,317.6 L1515.8,317.3 L1516.6,317.4 L1517.5,317.4 L1518.7,317.6 L1520.9,318.1 L1522.1,318.5 L1523.5,319.1 L1523.4,319.6 L1524.1,319.7 L1524.7,319.7 L1525.8,320.0 L1527.4,320.9 L1528.5,321.9 L1528.5,322.3 L1529.0,323.2 L1529.7,324.2 L1531.0,325.0 L1532.3,325.2 L1533.4,325.7 L1534.2,325.7 L1534.6,325.4 L1535.1,325.4 L1535.3,325.6 L1535.5,325.9 L1535.8,325.8 L1535.9,325.2 L1535.6,324.5 L1535.9,324.0 L1536.4,323.5 L1536.9,323.4 L1537.4,323.1 L1537.6,322.2 L1538.0,321.9 L1538.1,321.6 L1537.9,321.4 L1538.0,321.1 L1538.3,321.0 L1538.6,321.1 L1539.2,320.6 L1540.0,319.9 L1539.9,319.5 L1540.3,319.2 L1540.6,319.1 L1541.0,319.4 L1541.4,319.4 L1541.4,319.0 L1541.0,318.8 L1541.1,318.3 L1541.3,318.1 L1541.7,317.8 L1541.8,317.3 L1542.0,316.3 L1542.4,315.9 L1543.2,315.5 L1543.3,315.1 L1542.9,315.2 L1542.6,315.4 L1542.4,315.4 L1542.4,314.8 L1542.7,314.0 L1543.6,313.4 L1543.8,313.4 L1544.1,313.6 L1544.4,313.5 L1544.6,313.0 L1544.9,312.8 L1544.9,312.4 L1545.1,312.0 L1545.5,311.6 L1545.8,311.4 L1546.3,311.3 L1547.0,311.4 L1547.5,311.6 L1547.9,311.7 L1548.2,312.0 L1548.4,312.4 L1549.1,312.1 L1550.1,312.1 L1550.2,311.8 L1550.5,311.5 L1551.6,311.3 L1551.8,311.7 L1551.8,311.9 L1552.2,312.3 L1552.3,312.3 L1552.9,311.9 L1553.4,311.9 L1554.0,311.6 L1554.1,311.5 L1554.0,311.3 L1554.0,311.2 L1554.4,310.9 L1554.8,310.7 L1554.9,310.5 L1555.3,310.3 L1555.9,310.5 L1556.5,310.4 L1556.3,310.8 L1556.5,311.0 L1557.0,310.9 L1557.2,310.8 L1557.2,310.6 L1557.0,310.5 L1557.0,310.4 L1557.3,310.3 L1557.9,310.5 L1558.5,310.3 L1559.3,309.8 L1559.2,309.8 L1558.9,309.9 L1558.6,309.9 L1558.3,310.0 L1558.1,309.9 L1558.6,309.6 L1558.9,309.5 L1559.5,309.5 L1559.7,309.3 L1559.7,309.2 L1560.0,309.1 L1559.5,309.0 L1559.1,309.2 L1558.9,309.2 L1559.5,308.7 L1559.1,308.4 L1558.5,308.6 L1558.2,308.6 L1557.8,308.3 L1557.4,308.4 L1556.8,308.3 L1556.7,308.2 L1556.9,308.1 L1557.3,308.0 L1557.3,307.8 L1558.0,307.7 L1558.6,307.3 L1558.5,307.1 L1558.0,306.8 L1557.5,306.7 L1557.3,306.8 L1556.5,307.0 L1555.9,306.7 L1555.7,306.4 L1556.1,305.9 L1556.8,306.0 L1557.1,305.7 L1557.4,305.5 L1558.0,304.7 L1557.9,303.9 L1557.2,303.3 L1555.4,303.0 L1553.4,302.4 L1552.5,302.4 L1550.8,302.8 L1550.0,303.3 L1548.0,303.9 L1546.8,304.0 L1544.9,304.3 L1542.4,305.1 L1541.8,305.6 L1541.4,305.7 L1539.6,306.3 L1537.8,306.8 L1535.8,307.2 L1534.8,307.1 L1533.8,306.9 L1532.6,307.7 L1531.5,308.2 L1530.3,308.4 L1529.1,309.0 L1526.7,308.7 L1525.1,307.9 L1522.9,306.9 L1519.6,304.2 L1516.5,301.4 L1515.7,300.0 L1514.7,298.3 L1514.0,296.6 L1513.7,294.0 L1513.9,293.6 L1514.8,293.5 L1515.2,293.2 L1515.7,292.7 L1516.4,292.4 L1517.1,291.8 L1517.1,291.1 L1517.4,290.7 L1517.1,290.4 L1516.5,290.7 L1515.6,290.4 L1515.0,290.9 L1514.4,291.0 L1513.4,290.8 L1512.7,291.1 L1511.5,290.8 L1509.2,290.1 L1508.3,289.7 L1507.4,289.5 L1506.6,288.8 L1504.4,285.8 L1503.6,284.4 L1502.1,282.0 L1501.3,279.6 L1501.0,278.9 L1500.9,278.1 L1501.3,276.9 L1501.2,276.2 L1500.3,275.7 L1499.0,275.1 L1497.0,274.1 L1495.9,273.3 L1494.9,271.7 L1494.1,270.5 L1493.5,268.4 L1493.3,267.3 L1492.5,266.4 L1492.4,265.9 L1492.1,265.6 L1491.5,265.9 L1490.9,265.8 L1489.8,266.5 L1488.7,267.9 L1487.1,269.5 L1485.5,270.3 L1484.1,270.3 L1482.1,269.5 L1480.3,268.7 L1479.0,267.7 L1477.3,266.0 L1476.9,265.2 L1476.9,263.7 L1476.4,263.5 L1476.4,263.3 L1476.7,263.0 L1477.1,262.8 L1477.0,261.9 L1476.9,261.3 L1476.7,261.3 L1476.1,261.8 L1475.8,261.8 L1475.3,261.6 L1475.4,261.2 L1475.5,260.8 L1474.8,260.7 L1474.7,261.1 L1474.7,261.5 L1474.0,261.1 L1474.3,260.2 L1473.6,259.9 L1472.8,260.2 L1472.0,260.2 L1471.0,259.5 L1469.9,258.7 L1469.8,258.2 L1470.3,257.0 L1470.8,256.0 L1470.9,254.8 L1471.3,254.3 L1471.1,253.8 L1470.5,253.8 L1469.4,254.0 L1467.3,255.0 L1466.5,255.7 L1465.3,256.5 L1463.8,256.9 L1462.2,257.6 L1459.7,259.0 L1459.5,259.6 L1459.6,261.0 L1459.4,262.3 L1458.8,263.4 L1457.7,264.1 L1456.6,264.3 L1455.2,264.9 L1453.7,265.4 L1452.2,265.7 L1450.4,265.4 L1448.7,265.2 L1447.5,265.5 L1446.0,266.3 L1445.3,267.2 L1445.0,268.1 L1445.3,269.0 L1446.2,270.4 L1446.0,271.8 L1445.0,273.3 L1443.0,274.6 L1440.6,275.7 L1438.0,276.3 L1435.9,276.4 L1433.5,276.1 L1431.9,275.7 L1429.1,274.5 L1427.6,273.9 L1426.2,273.3 L1424.8,273.0 L1422.9,272.2 L1420.8,271.7 L1419.0,271.3 L1417.5,270.9 L1416.9,271.0 L1416.7,271.6 L1417.0,272.1 L1418.0,272.8 L1417.7,274.4 L1417.4,275.4 L1417.0,275.9 L1417.1,276.3 L1418.0,276.8 L1417.5,277.9 L1416.7,278.8 L1414.9,279.8 L1412.5,280.7 L1410.9,280.7 L1408.6,280.6 L1406.8,280.3 L1404.7,279.9 L1403.0,279.4 L1400.2,278.2 L1398.8,277.4 L1396.6,275.9 L1394.6,273.8 L1392.5,271.5 L1390.2,269.4 L1387.8,266.7 L1386.6,266.0 L1385.3,265.7 L1384.8,265.8 L1384.5,266.0 L1384.6,266.4 L1384.5,266.6 L1384.3,267.1 L1383.0,267.9 L1380.3,269.0 L1378.6,269.5 L1377.2,269.7 L1376.0,269.4 L1375.1,269.3 L1374.6,268.9 L1373.6,268.8 L1372.1,268.3 L1371.7,267.4 L1371.0,267.3 L1370.4,267.9 L1370.4,268.5 L1369.9,268.9 L1369.0,268.9 L1366.3,268.3 L1363.9,267.5 L1363.9,266.8 L1363.5,266.5 L1362.7,266.4 L1360.6,266.5 L1360.3,266.8 L1360.0,267.4 L1359.6,267.8 L1359.3,267.8 L1358.7,267.7 L1357.7,267.3 L1356.4,266.6 L1355.4,266.0 L1354.3,265.4 L1353.4,265.0 L1352.6,264.7 L1351.3,264.5 L1349.4,264.3 L1348.0,264.2 L1346.0,263.8 L1344.4,263.5 L1343.9,263.3 L1342.5,263.0 L1341.6,262.8 L1340.8,262.6 L1340.0,262.0 L1339.6,261.5 L1339.2,261.0 L1338.9,260.5 L1338.6,260.4 L1338.2,260.2 L1338.0,260.2 L1337.5,260.4 L1337.1,260.6 L1336.7,260.8 L1336.4,261.0 L1335.9,261.0 L1335.3,260.8 L1334.4,260.2 L1332.8,259.2 L1331.2,258.2 L1330.3,257.5 L1329.7,256.9 L1329.5,256.6 L1329.4,256.5 L1328.4,256.0 L1327.7,255.2 L1327.2,254.1 L1326.5,253.6 L1325.8,252.9 L1324.9,252.5 L1324.2,252.1 L1323.2,251.6 L1322.4,251.4 L1321.6,250.7 L1320.6,249.3 L1319.9,249.4 L1318.8,249.8 L1317.9,250.1 L1317.7,250.0 L1317.5,249.8 L1317.6,249.5 L1317.3,249.1 L1317.0,249.0 L1316.6,249.1 L1316.4,249.4 L1316.0,249.6 L1315.4,249.7 L1314.9,249.5 L1314.3,249.7 L1312.9,250.3 L1312.3,250.9 L1311.5,250.8 L1310.8,251.0 L1310.3,251.5 L1309.7,251.9 L1309.0,251.8 L1308.3,251.8 L1307.6,252.1 L1306.3,252.1 L1305.7,252.2 L1304.8,252.2 L1303.5,252.8 L1302.4,252.5 L1301.3,252.8 L1301.2,253.9 L1301.3,255.2 L1301.6,256.0 L1302.5,257.3 L1302.2,258.3 L1301.2,259.1 L1299.8,260.0 L1297.7,260.8 L1296.4,261.0 L1295.0,261.1 L1293.1,260.7 L1291.9,260.1 L1290.9,259.1 L1290.1,258.3 L1289.4,257.0 L1289.2,255.9 L1289.2,254.9 L1288.7,254.7 L1287.0,255.0 L1286.1,254.9 L1285.7,255.1 L1284.8,255.5 L1282.8,256.0 L1280.7,255.5 L1279.4,254.7 L1278.5,253.4 L1278.4,252.7 L1278.1,250.2 L1276.8,249.3 L1275.6,249.1 L1274.4,249.2 L1273.1,249.3 L1271.8,249.8 L1270.1,250.1 L1266.9,250.5 L1264.1,250.6 L1263.3,250.3 L1262.9,249.9 L1261.7,249.6 L1260.4,249.5 L1259.3,248.8 L1258.8,248.4 L1258.0,248.3 L1257.6,248.7 L1257.3,249.4 L1256.5,250.0 L1255.6,250.1 L1253.9,250.0 L1252.1,249.7 L1250.9,249.4 L1249.8,248.9 L1249.0,248.2 L1249.1,247.1 L1248.5,246.1 L1247.1,246.1 L1245.9,246.4 L1245.4,246.9 L1244.1,247.5 L1242.3,247.3 L1240.2,246.5 L1239.9,245.6 L1239.5,243.7 L1239.1,242.6 L1238.5,242.4 L1237.6,242.8 L1237.0,243.4 L1236.4,244.0 L1235.7,244.2 L1235.4,244.7 L1234.5,244.9 L1232.0,243.5 L1231.6,242.9 L1231.5,242.1 L1231.2,241.2 L1230.7,240.9 L1230.0,241.1 L1229.0,241.0 L1228.6,240.9 L1227.6,241.5 L1226.4,242.3 L1224.8,241.9 L1223.3,241.3 L1222.1,241.0 L1221.0,240.6 L1219.8,239.8 L1217.8,238.7 L1216.4,237.6 L1213.8,235.5 L1211.6,233.8 L1208.3,231.4 L1207.0,230.8 L1205.5,230.0 L1201.5,228.7 L1197.9,227.4 L1197.0,226.9 L1196.1,226.8 L1195.0,226.6 L1194.0,226.3 L1192.5,225.6 L1192.0,225.0 L1191.9,224.4 L1191.5,224.1 L1191.2,224.2 L1190.9,225.0 L1190.4,225.8 L1189.3,228.1 L1189.5,229.0 L1189.3,229.4 L1187.0,230.7 L1185.3,231.2 L1183.9,231.3 L1183.2,231.2 L1182.3,231.5 L1181.6,232.1 L1180.5,232.8 L1179.0,233.5 L1177.1,234.5 L1175.3,234.6 L1173.3,234.5 L1171.1,234.0 L1169.6,233.6 L1168.0,232.8 L1166.5,231.7 L1164.7,230.1 L1163.6,229.0 L1162.6,227.7 L1161.8,226.3 L1160.9,224.8 L1160.4,223.6 L1159.1,222.1 L1157.7,220.8 L1156.7,219.0 L1155.9,218.3 L1154.5,217.3 L1151.4,216.1 L1148.9,215.3 L1148.0,215.1 L1146.6,214.9 L1143.5,215.6 L1140.2,215.5 L1138.5,215.9 L1135.3,216.1 L1132.9,216.3 L1131.0,216.5 L1129.9,216.3 L1129.5,215.5 L1129.3,214.8 L1128.8,214.6 L1128.4,214.7 L1128.1,215.2 L1128.3,215.6 L1129.0,215.8 L1129.2,216.8 L1128.3,218.5 L1127.8,218.8 L1126.5,219.1 L1124.8,219.1 L1122.0,218.9 L1119.2,218.8 L1116.9,218.4 L1116.0,218.1 L1114.6,217.6 L1111.8,216.7 L1108.9,216.2 L1105.4,215.8 L1102.8,215.3 L1099.5,214.5 L1098.0,214.0 L1096.4,213.2 L1095.1,212.4 L1094.0,211.6 L1092.4,211.0 L1091.3,210.5 L1089.9,209.7 L1088.8,208.9 L1088.1,208.2 L1088.0,207.5 L1088.0,207.0 L1087.8,206.7 L1087.5,206.6 L1087.2,206.8 L1086.5,207.5 L1086.0,207.7 L1085.5,207.6 L1085.1,207.3 L1084.7,207.6 L1084.1,207.8 L1083.8,208.7 L1083.2,208.7 L1081.6,208.4 L1080.0,207.9 L1078.2,207.1 L1076.8,206.1 L1076.8,205.0 L1076.2,204.8 L1075.0,204.9 L1073.7,205.0 L1072.6,205.0 L1071.5,205.4 L1069.9,205.7 L1068.7,205.9 L1067.5,205.8 L1067.0,205.3 L1066.8,204.3 L1066.3,204.1 L1065.8,204.5 L1064.9,204.0 L1064.2,204.7 L1063.9,205.6 L1063.0,206.1 L1062.1,206.2 L1061.5,205.6 L1061.4,204.9 L1061.1,204.7 L1060.9,205.0 L1060.4,205.7 L1059.8,206.4 L1059.1,206.4 L1058.0,206.4 L1057.4,206.2 L1056.4,206.4 L1054.9,206.2 L1054.0,206.1 L1052.1,205.9 L1050.7,205.6 L1049.2,204.7 L1048.9,203.8 L1049.3,202.8 L1048.9,201.3 L1048.2,200.6 L1047.4,200.5 L1046.8,201.2 L1046.0,201.7 L1045.2,201.5 L1044.0,200.9 L1043.4,200.4 L1042.9,200.5 L1041.6,201.5 L1040.6,201.9 L1040.0,201.9 L1039.6,201.8 L1039.4,201.4 L1039.3,200.6 L1039.4,199.5 L1039.4,199.0 L1038.8,198.7 L1038.4,198.8 L1036.9,199.4 L1036.6,199.2 L1036.2,199.4 L1035.5,199.1 L1034.7,198.8 L1033.5,199.2 L1032.6,199.2 L1032.0,199.3 L1031.4,199.6 L1031.0,199.4 L1030.6,199.1 L1030.1,199.0 L1029.4,199.1 L1028.7,199.1 L1028.0,199.4 L1027.3,199.3 L1026.8,198.9 L1026.3,198.7 L1025.6,198.7 L1025.3,199.0 L1024.3,199.4 L1023.5,199.3 L1023.1,198.9 L1022.6,199.3 L1021.6,199.7 L1020.4,199.6 L1019.5,199.5 L1018.8,199.1 L1018.1,198.0 L1017.4,197.5 L1016.7,197.4 L1016.1,197.5 L1015.6,197.2 L1014.8,197.2 L1014.3,197.5 L1013.7,197.6 L1013.3,197.7 L1012.6,197.8 L1012.2,198.1 L1011.5,198.4 L1011.2,198.9 L1010.4,198.9 L1010.3,198.4 L1010.0,198.2 L1009.7,199.0 L1009.4,200.4 L1008.1,201.1 L1007.0,201.4 L1005.8,201.5 L1004.2,201.2 L1002.5,201.1 L1001.2,201.0 L999.7,201.5 L998.8,201.5 L998.2,201.7 L997.6,202.4 L996.6,202.8 L995.4,202.6 L994.7,202.3 L994.2,202.6 L993.3,202.4 L992.7,202.2 L992.2,202.5 L991.3,203.1 L990.3,203.1 L988.4,203.0 L987.4,202.8 L986.8,202.2 L986.7,201.6 L986.6,201.0 L986.2,200.8 L985.8,201.0 L985.9,201.4 L985.8,202.0 L984.6,202.5 L983.8,202.9 L982.6,202.9 L982.0,203.2 L981.5,203.9 L979.2,204.3 L978.0,204.9 L977.2,205.0 L976.2,205.0 L975.6,204.5 L974.9,204.6 L974.5,205.1 L974.0,205.4 L973.2,205.7 L972.2,205.9 L971.6,205.9 L971.1,205.4 L970.6,204.7 L969.9,204.7 L969.7,205.1 L969.3,205.1 L969.0,204.7 L968.2,204.7 L967.8,205.1 L967.4,205.8 L966.6,206.1 L965.9,206.2 L965.2,207.3 L964.6,207.6 L963.6,207.7 L962.4,207.5 L962.0,207.1 L961.2,207.0 L960.8,207.1 L960.1,207.2 L959.5,207.1 L958.4,207.5 L958.1,207.8 L957.6,207.9 L957.2,207.8 L956.6,207.9 L956.0,208.1 L955.2,208.3 L952.0,208.3 L950.7,207.9 L949.9,208.0 L947.6,208.6 L946.4,208.7 L944.9,208.6 L943.9,208.7 L941.3,209.4 L939.7,209.5 L938.4,209.9 L936.0,210.3 L932.6,210.2 L928.3,210.6 L926.1,211.2 L923.8,211.9 L922.8,212.5 L920.7,213.3 L919.2,213.4 L916.8,213.2 L916.2,212.9 L915.6,212.6 L915.4,212.4 L914.9,212.4 L913.1,212.4 L912.1,212.1 L911.4,212.1 L910.8,212.3 L909.8,212.7 L908.6,213.1 L907.6,213.1 L905.3,212.9 L904.3,213.1 L902.5,213.2 L900.6,213.0 L899.8,212.8 L898.8,212.7 L897.3,212.7 L896.6,212.7 L895.4,213.0 L894.6,212.9 L893.3,212.5 L892.8,212.5 L889.5,213.4 L887.5,213.7 L886.0,213.8 L885.4,214.0 L884.5,214.1 L884.0,214.1 L883.6,214.2 L882.6,215.4 L882.3,216.0 L881.7,216.2 L881.0,216.1 L879.5,215.7 L878.4,215.9 L874.8,215.8 L873.1,215.5 L872.4,215.6 L871.1,215.6 L869.3,215.6 L868.2,215.6 L866.4,215.9 L864.7,216.3 L863.2,216.4 L862.9,216.2 L862.7,215.9 L862.5,215.9 L862.4,216.1 L862.0,216.0 L861.5,216.3 L861.2,216.3 L860.9,216.0 L860.3,215.9 L860.0,216.1 L856.7,216.0 L855.1,216.5 L853.9,217.0 L853.5,217.7 L852.8,218.3 L851.9,218.7 L851.5,219.1 L851.4,219.8 L851.0,220.3 L850.4,220.5 L849.7,220.6 L848.8,220.4 L847.3,220.3 L845.2,220.6 L843.0,221.0 L842.0,221.1 L841.3,221.4 L839.1,223.0 L838.4,223.6 L837.0,224.0 L835.3,224.5 L833.1,225.2 L830.6,226.4 L829.4,227.0 L828.6,227.4 L828.0,228.2 L827.1,229.6 L826.8,230.9 L826.1,231.2 L826.1,231.5 L826.4,231.7 L827.1,231.7 L828.6,232.5 L829.3,233.4 L830.2,234.3 L830.3,234.9 L831.0,235.8 L831.7,236.6 L831.8,236.9 L831.8,237.3 L831.7,237.9 L831.5,238.2 L831.4,238.6 L829.6,237.8 L829.7,237.7 L828.5,237.3 L828.3,237.9 L828.6,238.0 L828.7,237.9 L831.1,238.9 L830.8,239.3 L831.0,239.4 L830.9,239.7 L830.9,240.0 L830.9,240.2 L830.9,240.4 L831.0,240.6 L831.1,240.8 L831.2,240.9 L831.2,241.1 L831.3,241.3 L831.3,241.9 L831.3,242.0 L831.4,242.3 L831.2,243.2 L830.9,244.4 L830.2,245.5 L829.2,246.5 L828.1,247.7 L827.4,248.2 L826.4,248.7 L825.6,249.8 L825.3,250.8 L825.2,251.4 L826.0,252.2 L826.2,253.3 L825.8,254.5 L825.0,255.5 L823.0,256.8 L821.4,257.7 L819.3,258.5 L818.6,258.1 L817.8,259.5 L815.7,259.9 L813.0,260.5 L812.4,260.5 L811.0,261.7 L810.3,262.6 L809.2,263.1 L807.4,263.2 L805.5,263.5 L804.3,263.9 L802.5,263.4 L801.4,263.8 L799.5,264.2 L798.1,263.9 L797.0,264.5 L796.0,264.9 L793.6,265.8 L791.4,265.8 L789.3,265.8 L787.8,265.1 L786.7,265.1 L785.3,264.9 L783.7,264.2 L782.7,264.2 L781.7,264.1 L780.5,264.0 L779.5,263.2 L779.0,263.8 L778.0,264.0 L776.8,264.0 L775.8,263.7 L774.8,263.5 L773.5,263.5 L772.7,264.1 L772.3,265.7 L771.4,265.8 L769.9,265.9 L767.7,265.4 L766.9,265.3 L766.0,265.5 L765.7,266.7 L764.9,266.7 L764.3,266.5 L763.9,267.0 L763.1,267.4 L762.1,267.8 L760.4,267.9 L759.5,267.6 L758.6,268.0 L757.4,268.0 L755.9,268.0 L755.2,267.9 L754.6,267.3 L753.7,267.2 L752.9,268.6 L751.4,268.9 L749.8,268.9 L748.7,268.3 L747.4,268.2 L746.5,269.3 L745.4,270.3 L745.0,270.9 L743.6,270.9 L743.0,270.7 L742.1,270.6 L741.6,271.4 L739.6,272.0 L737.8,272.0 L736.1,271.9 L735.3,271.8 L734.5,271.2 L733.9,271.4 L733.6,272.0 L732.5,272.5 L731.5,272.5 L729.0,271.9 L727.9,271.6 L726.9,271.4 L725.6,271.8 L724.7,272.0 L722.3,273.0 L720.7,273.3 L719.6,273.4 L719.3,274.2 L719.2,274.5 L718.3,274.8 L716.5,275.0 L714.3,275.3 L713.5,274.7 L713.2,274.4 L712.3,274.7 L711.6,275.0 L710.1,275.0 L708.6,274.6 L707.7,275.0 L707.2,275.9 L706.8,277.2 L705.8,278.4 L704.4,279.0 L703.0,279.0 L700.5,279.1 L698.7,279.2 L697.6,278.9 L696.3,278.5 L695.9,279.7 L696.3,280.2 L696.5,281.0 L695.5,282.1 L693.5,282.7 L691.3,282.4 L689.5,282.4 L688.4,281.8 L687.2,281.9 L686.1,282.1 L685.5,282.7 L684.7,283.1 L683.5,283.1 L682.0,283.3 L681.4,284.2 L680.4,285.6 L678.9,286.3 L677.0,286.4 L675.2,286.0 L673.5,286.3 L672.0,287.6 L670.2,288.1 L668.8,288.4 L666.8,288.9 L664.7,288.7 L663.9,288.6 L663.7,289.7 L662.8,290.5 L662.0,291.3 L661.8,292.2 L661.0,292.7 L660.2,292.8 L659.3,293.0 L658.4,293.9 L657.6,294.0 L657.5,295.0 L657.3,295.7 L656.1,296.3 L654.8,296.2 L654.0,296.5 L653.4,298.0 L652.0,298.8 L650.1,299.0 L648.5,299.0 L646.8,298.9 L645.5,298.3 L644.0,298.2 L643.1,297.7 L641.9,298.5 L641.3,299.6 L640.4,300.1 L639.5,300.1 L638.6,301.2 L637.8,301.8 L637.0,301.8 L636.0,302.0 L634.9,301.8 L633.7,302.4 L633.0,302.9 L631.6,303.0 L630.8,303.6 L630.1,304.1 L628.7,304.5 L627.2,304.5 L626.3,304.2 L625.3,304.3 L624.5,304.2 L623.7,303.9 L623.1,303.4 L622.0,303.3 L620.6,304.3 L619.8,304.7 L619.0,304.9 L617.9,304.9 L616.4,304.7 L614.9,304.1 L613.8,304.2 L612.6,304.6 L611.9,304.9 L610.9,304.8 L610.0,305.2 L609.0,305.4 L607.4,305.5 L606.0,305.5 L604.4,305.4 L602.9,304.9 L601.1,304.5 L599.4,304.0 L596.6,303.1 L594.7,302.1 L593.5,301.7 L591.7,300.9 L591.1,300.1 L590.3,300.0 L589.2,300.4 L589.2,300.7 L589.1,301.4 L588.6,301.9 L587.9,302.1 L587.2,302.2 L586.7,302.4 L586.0,302.5 L585.1,302.6 L584.3,302.6 L583.3,302.4 L582.6,302.1 L582.2,301.8 L582.3,301.1 L582.0,301.2 L582.0,301.9 L582.3,302.2 L582.4,302.2 L582.7,302.6 L582.6,303.6 L582.8,304.4 L582.8,305.3 L582.6,306.1 L582.0,307.3 L581.2,307.9 L579.8,308.7 L577.8,309.5 L575.6,310.1 L574.1,310.5 L571.4,311.0 L569.2,311.3 L566.5,311.7 L558.9,312.1 L552.3,312.2 L548.4,311.5 L546.9,311.0 L546.9,309.4 L546.7,308.0 L546.2,305.2 L546.1,304.4 L546.0,302.5 L545.7,299.4 L545.4,297.5 L545.1,294.3 L545.0,293.4 L544.5,289.5 L544.3,287.6 L544.1,285.1 L543.9,283.7 L543.8,282.9 L543.5,279.2 L543.4,277.3 L543.0,274.5 L542.9,272.9 L542.7,271.5 L542.6,269.9 L542.4,268.9 L542.4,267.9 L541.7,262.7 L541.6,261.9 L541.6,261.1 L541.5,260.1 L541.4,259.0 L541.2,257.3 L541.1,255.8 L540.8,253.9 L540.4,252.6 L540.2,251.9 L540.1,251.0 L539.9,249.4 L539.9,248.8 L539.6,245.7 L539.4,245.1 L539.3,243.8 L539.2,242.8 L539.1,242.6 L538.8,242.6 L538.7,242.9 L538.8,243.5 L538.9,244.3 L539.0,245.1 L539.1,246.4 L539.4,248.1 L539.4,248.8 L539.5,249.7 L539.6,251.0 L539.8,252.7 L539.8,253.1 L539.6,253.4 L539.2,254.0 L538.9,254.2 L538.8,254.3 L538.8,254.4 L539.0,254.9 L539.3,255.3 L539.5,255.8 L539.7,256.3 L539.9,257.0 L539.9,257.5 L539.8,258.5 L539.8,259.2 L539.9,259.8 L540.2,260.6 L540.3,261.0 L540.3,262.2 L540.2,262.8 L540.2,263.4 L540.2,263.9 L540.6,264.9 L540.7,265.6 L540.5,267.4 L540.8,268.4 L540.9,268.9 L540.8,269.6 L540.6,270.0 L540.4,270.3 L540.4,270.6 L541.0,271.6 L541.3,272.1 L541.5,272.6 L541.5,273.2 L541.4,273.8 L541.2,274.1 L541.1,274.5 L541.2,275.0 L541.2,275.4 L541.3,275.9 L541.2,276.0 L541.3,277.2 L541.4,277.4 L541.6,279.3 L541.8,280.4 L542.0,282.0 L542.5,283.4 L542.7,284.0 L542.8,284.7 L543.1,286.9 L543.2,287.4 L543.3,288.7 L543.4,290.9 L543.6,292.0 L543.9,294.0 L544.2,296.7 L544.5,300.0 L544.5,300.8 L544.7,301.9 L544.9,303.2 L545.1,306.2 L545.3,307.7 L545.5,308.7 L545.7,310.1 L545.8,311.4 L546.5,316.9 L545.7,317.8 L544.3,318.2 L542.3,318.9 L540.7,319.4 L539.1,319.8 L537.5,320.9 L536.5,322.0 L535.9,323.3 L534.2,325.1 L532.7,326.2 L531.6,327.0 L530.2,328.6 L528.0,330.0 L524.7,331.1 L521.0,331.9 L519.2,332.0 L516.8,332.7 L514.0,332.8 L512.0,333.2 L510.1,333.5 L507.6,333.5 L505.7,333.1 L504.6,333.0 L503.2,333.8 L501.4,334.2 L499.8,334.2 L498.1,334.2 L496.1,334.4 L494.4,334.5 L493.1,334.7 L492.0,336.2 L490.9,337.4 L489.0,338.5 L487.2,339.2 L484.0,339.8 L482.5,340.5 L480.9,341.9 L478.2,342.5 L477.0,342.6 L474.7,342.6 L473.5,342.6 L470.2,345.1 L469.0,345.4 L467.3,346.4 L465.9,347.2 L463.8,347.3 L462.6,348.0 L461.3,348.7 L458.4,349.3 L456.4,349.8 L452.4,351.4 L450.9,352.0 L449.4,353.6 L447.6,355.2 L444.5,356.4 L441.9,357.0 L439.9,357.9 L437.1,358.3 L433.8,359.1 L430.4,359.8 L428.5,360.4 L426.6,361.3 L423.9,362.1 L420.5,363.2 L417.4,364.0 L417.0,364.2 L410.7,366.2 L407.3,367.6 L405.2,367.8 L403.2,368.0 L400.5,368.0 L397.7,368.1 L393.0,368.6 L389.7,368.6 L386.9,368.3 L382.9,367.8 L379.1,367.2 L376.6,366.3 L373.8,365.7 L370.7,365.0 L367.3,366.0 L364.4,366.0 L359.8,366.7 L356.9,366.4 L352.5,365.0 L350.4,363.7 L348.3,362.7 L345.8,362.1 L342.3,362.2 L341.8,362.7 L341.5,363.5 L340.8,364.8 L337.9,365.9 L336.2,366.1 L335.9,366.4 L335.1,366.4 L334.9,366.6 L334.5,366.6 L332.8,366.7 L331.4,367.1 L329.9,367.5 L328.2,367.2 L326.4,366.8 L325.0,365.7 L322.8,364.8 L319.9,364.0 L316.2,363.7 L312.7,364.0 L311.9,364.2 L310.8,365.1 L310.2,365.7 L308.3,367.2 L307.0,368.1 L305.0,368.7 L304.2,370.1 L302.5,370.7 L299.5,370.6 L297.9,370.5 L294.4,370.3 L293.0,370.5 L291.4,370.4 L287.2,369.4 L285.1,368.4 L282.6,366.5 L281.8,365.6 L280.6,364.4 L279.4,364.3 L277.7,365.2 L277.2,365.7 L277.1,366.7 L276.9,367.3 L277.2,367.8 L277.1,368.1 L276.9,368.9 L276.8,369.8 L276.8,370.4 L276.6,370.8 L277.7,371.6 L277.9,372.6 L279.6,373.7 L281.5,375.4 L282.7,377.3 L283.2,378.4 L283.5,379.6 L283.9,380.4 L283.9,381.7 L283.8,382.0 L283.5,383.0 L282.4,383.8 L282.3,383.9 L282.1,383.9 L282.0,384.2 L282.2,384.3 L281.8,385.1 L281.7,386.1 L281.7,387.3 L282.2,388.9 L282.6,390.8 L283.1,392.8 L283.4,393.9 L283.0,395.0 L282.1,395.4 L282.1,395.9 L283.2,397.1 L283.8,399.0 L284.6,401.2 L284.2,404.9 L283.7,407.1 L282.9,409.0 L281.4,409.9 L280.6,410.9 L280.9,413.3 L281.0,414.5 L281.0,415.1 L281.1,416.7 L280.1,419.7 L280.6,422.6 L280.4,426.2 L279.1,428.7 L277.5,430.1 L276.9,430.1 L276.2,429.7 L276.0,430.6 L275.5,432.0 L274.6,433.3 L274.1,434.0 L274.5,434.9 L276.3,435.8 L281.9,437.6 L283.6,438.2 L285.0,438.9 L286.8,439.6 L289.1,442.3 L290.1,443.2 L291.6,444.3 L293.5,444.9 L294.7,446.1 L296.4,447.5 L298.9,448.4 L300.9,449.7 L302.2,451.4 L302.8,452.8 L302.5,455.3 L301.3,456.8 L301.5,458.6 L302.2,460.4 L303.3,462.1 L304.9,463.6 L306.3,464.4 L307.0,466.7 L307.0,468.0 L307.0,469.3 L308.0,470.4 L308.8,471.4 L309.0,473.0 L308.7,473.5 L308.2,476.2 L311.1,477.8 L315.6,479.5 L317.1,480.2 L318.0,480.9 L320.1,480.9 L321.6,480.9 L322.6,481.5 L323.1,482.9 L323.9,483.7 L324.6,484.5 L323.9,485.5 L324.3,486.8 L325.5,487.2 L326.3,487.6 L327.6,487.1 L329.0,487.0 L332.1,487.6 L337.0,488.6 L338.5,488.9 L339.4,489.2 L341.4,489.4 L343.4,489.9 L344.6,490.4 L345.6,490.9 L346.2,491.6 L346.6,492.2 L346.3,493.5 L346.8,494.3 L346.9,495.1 L346.8,496.1 L347.1,496.3 L347.8,496.3 L349.1,496.4 L350.5,497.2 L351.0,497.8 L350.8,498.7 L350.9,499.2 L351.3,499.5 L352.2,499.5 L354.5,499.6 L356.8,500.2 L357.1,500.6 L357.8,500.8 L358.9,500.6 L360.2,500.5 L361.8,500.5 L362.9,500.7 L364.6,501.5 L366.0,502.2 L367.6,502.4 L370.4,502.7 L372.8,502.9 L375.4,503.2 L377.3,503.2 L378.7,503.3 L380.0,503.7 L380.7,504.3 L382.2,504.2 L383.7,504.1 L385.3,504.1 L387.0,504.3 L389.0,504.8 L390.5,505.9 L390.7,507.1 L391.6,507.9 L393.2,508.6 L393.7,509.2 L394.5,509.3 L397.1,509.1 L398.9,509.3 L400.7,510.0 L402.0,511.0 L403.2,511.4 L404.4,511.2 L406.0,511.3 L407.4,511.7 L408.7,513.0 L409.6,513.6 L410.3,513.8 L412.8,513.8 L413.5,514.5 L414.0,514.6 L414.8,514.5 L415.1,514.7 L415.9,515.7 L416.5,515.9 L418.9,516.0 L421.1,516.1 L422.2,516.4 L422.5,516.7 L422.3,517.3 L422.4,517.8 L422.9,517.9 L423.7,517.5 L425.2,516.6 L426.5,516.1 L427.6,516.1 L428.9,516.3 L429.3,516.9 L430.0,517.1 L430.8,516.9 L432.1,516.1 L434.4,514.7 L435.8,514.2 L436.6,514.3 L437.1,514.2 L437.8,513.9 L438.6,513.7 L439.6,513.7 L440.9,514.0 L441.7,514.5 L441.8,515.4 L442.5,515.7 L443.2,515.7 L444.5,515.4 L447.0,515.1 L449.7,515.3 L452.3,515.8 L454.1,516.7 L455.9,518.0 L457.2,519.1 L458.1,520.3 L458.8,520.8 L460.0,521.0 L461.4,520.8 L463.0,520.4 L463.8,519.8 L464.7,518.8 L465.7,517.1 L466.8,515.9 L468.1,514.8 L469.5,514.1 L470.4,513.9 L471.3,514.6 L472.0,514.7 L472.9,515.2 L473.5,515.2 L474.6,514.9 L476.0,515.1 L477.2,515.4 L477.3,516.1 L478.0,516.6 L478.5,516.6 L478.2,516.0 L478.4,515.6 L479.1,515.7 L479.6,515.9 L479.9,516.5 L480.2,516.5 L480.3,516.1 L481.0,515.6 L482.6,515.0 L483.4,514.7 L484.3,515.4 L484.7,514.9 L485.1,515.4 L486.1,515.1 L487.3,515.0 L487.7,514.6 L488.7,514.7 L489.4,514.7 L489.4,514.1 L489.9,514.2 L490.4,514.3 L490.9,514.3 L491.3,513.9 L492.2,513.8 L493.1,514.0 L493.5,513.7 L493.9,513.9 L493.7,514.2 L495.0,514.6 L495.4,514.4 L495.3,513.9 L495.0,513.8 L495.2,513.3 L496.5,512.5 L499.2,511.0 L503.0,508.9 L504.7,507.9 L506.4,507.0 L508.1,506.2 L509.5,505.3 L511.0,504.2 L511.9,503.3 L512.6,502.8 L513.3,502.8 L513.6,502.6 L513.7,502.2 L515.6,500.4 L518.8,498.1 L523.8,494.5 L525.8,493.1 L527.2,492.2 L530.8,490.2 L533.1,488.7 L534.9,487.5 L536.3,486.7 L539.1,485.0 L540.8,484.2 L542.2,484.0 L543.0,485.2 L543.9,485.5 L544.5,485.1 L544.2,484.6 L544.3,484.1 L546.4,483.0 L549.1,481.8 L552.6,480.1 L556.4,478.5 L562.7,476.5 L567.9,474.9 Z"></path>
    <path d="M52.0,47.7 L52.1,47.9 L52.2,47.8 L52.2,47.9 L52.2,48.0 L52.1,48.0 L51.9,48.1 L51.8,48.3 L51.8,48.4 L51.7,48.4 L51.6,48.6 L51.5,48.6 L51.4,48.8 L51.5,48.9 L51.7,48.8 L51.8,48.7 L52.0,48.5 L52.0,48.4 L52.1,48.3 L52.2,48.1 L52.2,48.1 L52.5,48.0 L52.6,47.8 L52.5,47.7 L52.3,47.7 L52.4,47.6 L52.3,47.5 L52.1,47.6 L52.0,47.7 Z"></path>
    <path d="M55.6,40.4 L55.5,40.6 L55.5,40.7 L56.0,40.5 L56.1,40.6 L56.2,40.6 L56.4,40.5 L56.5,40.6 L56.5,40.7 L56.7,40.7 L56.8,40.6 L56.9,40.5 L56.9,40.4 L56.8,40.4 L56.8,40.2 L56.8,40.1 L56.6,40.0 L56.4,40.1 L56.5,40.3 L56.4,40.3 L56.4,40.3 L56.2,40.3 L56.2,40.2 L56.1,40.1 L55.8,40.3 L55.7,40.3 L55.6,40.4 Z"></path>
    <path d="M40.0,52.7 L40.1,52.8 L40.2,52.7 L40.3,52.6 L40.5,52.7 L40.6,52.6 L40.9,52.4 L41.0,52.2 L40.9,52.1 L40.6,52.2 L40.7,52.1 L40.6,52.0 L40.4,52.1 L40.3,52.3 L40.3,52.4 L40.6,52.3 L40.5,52.4 L40.4,52.5 L40.3,52.4 L40.2,52.5 L40.0,52.6 L40.0,52.7 Z"></path>
    <path d="M704.5,492.5 L706.3,493.9 L707.8,494.3 L710.4,494.3 L711.3,494.5 L711.4,494.8 L711.7,495.0 L712.3,495.0 L713.2,492.2 L713.8,491.3 L713.9,490.3 L713.4,489.2 L712.9,486.9 L711.8,484.6 L711.0,483.4 L710.0,482.4 L709.6,481.0 L709.1,481.8 L708.4,482.4 L705.9,484.0 L704.5,484.8 L703.8,486.5 L702.9,488.7 L702.9,490.2 L703.3,491.5 L704.5,492.5 Z"></path>
    <path d="M945.2,422.3 L945.7,421.6 L945.8,420.4 L944.9,420.4 L944.6,421.2 L945.2,422.3 Z"></path>
    <path d="M1077.1,421.7 L1078.5,420.8 L1079.9,420.2 L1081.0,420.7 L1081.7,420.7 L1080.5,418.9 L1079.2,416.3 L1078.5,414.1 L1076.8,410.2 L1075.3,407.9 L1074.1,405.5 L1073.3,405.6 L1072.6,406.7 L1072.1,408.9 L1072.2,410.5 L1072.7,411.4 L1072.4,412.4 L1073.8,412.5 L1075.1,414.2 L1075.6,415.7 L1075.3,417.7 L1074.6,418.6 L1074.4,419.9 L1074.8,420.5 L1075.1,421.4 L1077.1,421.7 Z"></path>
    <path d="M1098.9,411.3 L1097.8,412.8 L1097.8,414.1 L1098.3,414.7 L1099.0,413.8 L1099.4,412.5 L1098.9,411.3 Z"></path>
    <path d="M1159.6,335.0 L1160.1,334.5 L1159.4,333.5 L1159.7,333.0 L1159.7,332.7 L1159.1,332.2 L1159.5,331.6 L1159.4,330.7 L1158.9,330.3 L1158.7,329.6 L1158.9,328.9 L1157.4,327.8 L1156.9,327.9 L1156.6,328.3 L1157.0,328.8 L1156.6,330.2 L1157.0,330.8 L1156.8,331.5 L1156.3,332.3 L1156.6,333.3 L1157.8,333.8 L1159.1,335.0 L1159.6,335.0 Z"></path>
    <path d="M1390.4,360.5 L1390.7,360.2 L1391.7,360.1 L1391.9,359.6 L1391.4,359.5 L1391.2,358.8 L1391.5,358.6 L1391.9,358.2 L1392.2,357.7 L1391.8,357.3 L1392.2,356.9 L1391.8,355.9 L1391.5,355.2 L1391.2,355.0 L1391.5,354.4 L1390.6,354.0 L1390.1,353.7 L1389.3,353.5 L1389.2,354.2 L1388.9,355.0 L1388.4,356.3 L1387.9,356.7 L1388.1,357.1 L1388.1,357.8 L1387.8,358.4 L1388.5,358.5 L1389.0,359.2 L1388.6,359.9 L1388.7,360.5 L1389.4,360.2 L1389.9,360.2 L1390.4,360.5 Z"></path>
    <path d="M1389.2,257.9 L1390.0,257.2 L1390.4,257.1 L1390.3,256.5 L1390.1,256.3 L1390.1,255.9 L1389.9,255.8 L1390.2,255.4 L1390.1,255.2 L1389.3,255.3 L1389.0,255.2 L1388.6,255.0 L1388.2,254.7 L1388.1,254.2 L1387.5,253.4 L1386.6,253.4 L1386.3,253.6 L1385.5,254.7 L1385.7,254.9 L1386.2,255.9 L1386.4,256.2 L1386.9,257.0 L1387.3,257.3 L1387.9,257.5 L1388.2,257.4 L1388.4,257.5 L1388.4,257.7 L1389.2,257.9 Z"></path>
  </g>
</svg>